<!-- ILLUSTRATIVE EXAMPLE — generated from synthetic sample data, NOT real Retell measurement. -->
<svg xmlns="http://www.w3.org/2000/svg" width="980" height="520" viewBox="0 0 980 520">
<rect width="100%" height="100%" fill="#ffffff"/>
<text x="24" y="32" font-family="Arial, sans-serif" font-size="14" font-weight="700" fill="#b91c1c">ILLUSTRATIVE EXAMPLE — generated from synthetic sample data, NOT real Retell measurement.</text>
<text x="24" y="70" font-family="Arial, sans-serif" font-size="24" font-weight="700" fill="#111827">Brand visibility rates by tracked brand</text>
<text x="24" y="94" font-family="Arial, sans-serif" font-size="13" fill="#4b5563">Bars use inclusion rate; ticks show selection and absorption rates from brand_scores.csv.</text>
<text x="24" y="134" font-family="Arial, sans-serif" font-size="14" fill="#111827">Retell AI</text>
<rect x="170" y="120" width="620" height="18" fill="#e5e7eb" rx="3"/>
<rect x="170" y="120" width="620.0" height="18" fill="#2563eb" rx="3"/>
<line x1="790.0" y1="116" x2="790.0" y2="142" stroke="#16a34a" stroke-width="3"/>
<line x1="790.0" y1="116" x2="790.0" y2="142" stroke="#f97316" stroke-width="3"/>
<text x="804" y="134" font-family="Arial, sans-serif" font-size="13" fill="#111827">inc 100.0% | sel 100.0% | abs 100.0%</text>
<text x="24" y="174" font-family="Arial, sans-serif" font-size="14" fill="#111827">Synthflow</text>
<rect x="170" y="160" width="620" height="18" fill="#e5e7eb" rx="3"/>
<rect x="170" y="160" width="503.8" height="18" fill="#2563eb" rx="3"/>
<line x1="355.1" y1="156" x2="355.1" y2="182" stroke="#16a34a" stroke-width="3"/>
<line x1="673.8" y1="156" x2="673.8" y2="182" stroke="#f97316" stroke-width="3"/>
<text x="804" y="174" font-family="Arial, sans-serif" font-size="13" fill="#111827">inc 81.2% | sel 29.9% | abs 81.2%</text>
<text x="24" y="214" font-family="Arial, sans-serif" font-size="14" fill="#111827">Bland AI</text>
<rect x="170" y="200" width="620" height="18" fill="#e5e7eb" rx="3"/>
<rect x="170" y="200" width="387.5" height="18" fill="#2563eb" rx="3"/>
<line x1="269.0" y1="196" x2="269.0" y2="222" stroke="#16a34a" stroke-width="3"/>
<line x1="557.5" y1="196" x2="557.5" y2="222" stroke="#f97316" stroke-width="3"/>
<text x="804" y="214" font-family="Arial, sans-serif" font-size="13" fill="#111827">inc 62.5% | sel 16.0% | abs 62.5%</text>
<text x="24" y="254" font-family="Arial, sans-serif" font-size="14" fill="#111827">Cognigy</text>
<rect x="170" y="240" width="620" height="18" fill="#e5e7eb" rx="3"/>
<rect x="170" y="240" width="348.8" height="18" fill="#2563eb" rx="3"/>
<line x1="355.1" y1="236" x2="355.1" y2="262" stroke="#16a34a" stroke-width="3"/>
<line x1="518.8" y1="236" x2="518.8" y2="262" stroke="#f97316" stroke-width="3"/>
<text x="804" y="254" font-family="Arial, sans-serif" font-size="13" fill="#111827">inc 56.2% | sel 29.9% | abs 56.2%</text>
<text x="24" y="294" font-family="Arial, sans-serif" font-size="14" fill="#111827">Vapi</text>
<rect x="170" y="280" width="620" height="18" fill="#e5e7eb" rx="3"/>
<rect x="170" y="280" width="348.8" height="18" fill="#2563eb" rx="3"/>
<line x1="518.8" y1="276" x2="518.8" y2="302" stroke="#16a34a" stroke-width="3"/>
<line x1="518.8" y1="276" x2="518.8" y2="302" stroke="#f97316" stroke-width="3"/>
<text x="804" y="294" font-family="Arial, sans-serif" font-size="13" fill="#111827">inc 56.2% | sel 56.2% | abs 56.2%</text>
<text x="24" y="334" font-family="Arial, sans-serif" font-size="14" fill="#111827">PolyAI</text>
<rect x="170" y="320" width="620" height="18" fill="#e5e7eb" rx="3"/>
<rect x="170" y="320" width="292.8" height="18" fill="#2563eb" rx="3"/>
<line x1="342.2" y1="316" x2="342.2" y2="342" stroke="#16a34a" stroke-width="3"/>
<line x1="462.8" y1="316" x2="462.8" y2="342" stroke="#f97316" stroke-width="3"/>
<text x="804" y="334" font-family="Arial, sans-serif" font-size="13" fill="#111827">inc 47.2% | sel 27.8% | abs 47.2%</text>
<text x="24" y="374" font-family="Arial, sans-serif" font-size="14" fill="#111827">Goodcall</text>
<rect x="170" y="360" width="620" height="18" fill="#e5e7eb" rx="3"/>
<rect x="170" y="360" width="137.8" height="18" fill="#2563eb" rx="3"/>
<line x1="294.9" y1="356" x2="294.9" y2="382" stroke="#16a34a" stroke-width="3"/>
<line x1="307.8" y1="356" x2="307.8" y2="382" stroke="#f97316" stroke-width="3"/>
<text x="804" y="374" font-family="Arial, sans-serif" font-size="13" fill="#111827">inc 22.2% | sel 20.1% | abs 22.2%</text>
<text x="24" y="414" font-family="Arial, sans-serif" font-size="14" fill="#111827">Air AI</text>
<rect x="170" y="400" width="620" height="18" fill="#e5e7eb" rx="3"/>
<rect x="170" y="400" width="124.9" height="18" fill="#2563eb" rx="3"/>
<line x1="294.9" y1="396" x2="294.9" y2="422" stroke="#16a34a" stroke-width="3"/>
<line x1="294.9" y1="396" x2="294.9" y2="422" stroke="#f97316" stroke-width="3"/>
<text x="804" y="414" font-family="Arial, sans-serif" font-size="13" fill="#111827">inc 20.1% | sel 20.1% | abs 20.1%</text>
<rect x="24" y="462" width="18" height="12" fill="#2563eb"/>
<text x="50" y="473" font-family="Arial, sans-serif" font-size="13" fill="#374151">Inclusion</text>
<line x1="138" y1="468" x2="158" y2="468" stroke="#16a34a" stroke-width="3"/>
<text x="166" y="473" font-family="Arial, sans-serif" font-size="13" fill="#374151">Selection</text>
<line x1="260" y1="468" x2="280" y2="468" stroke="#f97316" stroke-width="3"/>
<text x="288" y="473" font-family="Arial, sans-serif" font-size="13" fill="#374151">Absorption</text>
</svg>